<svg t="1750234616397" class="icon" viewBox="0 0 1024 1024" version="1.1" xmlns="http://www.w3.org/2000/svg" p-id="6046" width="200" height="200"><path d="M136.533333 0h204.8c75.093333 0 136.533333 61.44 136.533334 136.533333v204.8c0 75.093333-61.44 136.533333-136.533334 136.533334H136.533333C61.44 477.866667 0 416.426667 0 341.333333V136.533333C0 61.44 61.44 0 136.533333 0z m0 68.266667c-40.96 0-68.266667 27.306667-68.266666 68.266666v204.8c0 40.96 27.306667 68.266667 68.266666 68.266667h204.8c40.96 0 68.266667-27.306667 68.266667-68.266667V136.533333c0-40.96-27.306667-68.266667-68.266667-68.266666H136.533333zM136.533333 546.133333h204.8c75.093333 0 136.533333 61.44 136.533334 136.533334v204.8c0 75.093333-61.44 136.533333-136.533334 136.533333H136.533333c-75.093333 0-136.533333-61.44-136.533333-136.533333v-204.8c0-75.093333 61.44-136.533333 136.533333-136.533334z m0 68.266667c-40.96 0-68.266667 27.306667-68.266666 68.266667v204.8c0 40.96 27.306667 68.266667 68.266666 68.266666h204.8c40.96 0 68.266667-27.306667 68.266667-68.266666v-204.8c0-40.96-27.306667-68.266667-68.266667-68.266667H136.533333zM682.666667 0h204.8c75.093333 0 136.533333 61.44 136.533333 136.533333v204.8c0 75.093333-61.44 136.533333-136.533333 136.533334h-204.8c-75.093333 0-136.533333-61.44-136.533334-136.533334V136.533333c0-75.093333 61.44-136.533333 136.533334-136.533333z m0 68.266667c-40.96 0-68.266667 27.306667-68.266667 68.266666v204.8c0 40.96 27.306667 68.266667 68.266667 68.266667h204.8c40.96 0 68.266667-27.306667 68.266666-68.266667V136.533333c0-40.96-27.306667-68.266667-68.266666-68.266666h-204.8zM682.666667 546.133333h204.8c75.093333 0 136.533333 61.44 136.533333 136.533334v204.8c0 75.093333-61.44 136.533333-136.533333 136.533333h-204.8c-75.093333 0-136.533333-61.44-136.533334-136.533333v-204.8c0-75.093333 61.44-136.533333 136.533334-136.533334z m0 68.266667c-40.96 0-68.266667 27.306667-68.266667 68.266667v204.8c0 40.96 27.306667 68.266667 68.266667 68.266666h204.8c40.96 0 68.266667-27.306667 68.266666-68.266666v-204.8c0-40.96-27.306667-68.266667-68.266666-68.266667h-204.8z" fill="#2c2c2c" p-id="6047" data-spm-anchor-id="a313x.search_index.0.i2.24013a814PXeEr" class="selected"></path></svg>