<svg t="1749869682423" class="icon" viewBox="0 0 1024 1024" version="1.1" xmlns="http://www.w3.org/2000/svg" p-id="11589" width="200" height="200"><path d="M512 512m-512 0a512 512 0 1 0 1024 0 512 512 0 1 0-1024 0Z" fill="#FFFFFF" p-id="11590"></path><path d="M512 0C229.205333 0 0 229.205333 0 512c0 172.842667 85.610667 325.696 216.746667 418.346667 9.28-2.048 58.005333-13.653333 117.525333-44.650667 22.4-7.637333 56.853333-44.010667 56.853333-44.010667s14.293333-22.421333 19.669334-52.992c4.906667-20.906667-2.752-35.882667-10.176-44.842666-43.413333-62.165333-83.157333-88.661333-112.426667-148.8-10.688-24.853333-11.52-40.256-2.346667-53.696 9.088-13.44 28.544-10.901333 28.544-10.901334s-7.530667-63.082667 0-91.008c15.594667-107.306667 77.44-135.253333 77.44-135.253333s25.173333-24.96 92.458667-31.893333c67.242667-5.802667 98.645333 11.52 98.645333 11.52s17.621333-23.957333 63.701334-0.512c-14.592-2.24-24.256 6.122667-24.256 6.122666s-8.170667 9.877333 3.456 15.274667c24.149333-5.077333 23.125333 4.181333 23.125333 4.181333s-10.176-0.512-12.522667 9.685334c0 2.346667 48.917333 8.96 64.512 85.909333 2.346667 12.032 20.693333 116.394667-3.882666 134.528 4.266667 3.264 4.693333 2.645333 8.96 2.24 10.005333-6.314667 31.104-5.290667 36.181333 4.586667 4.288 6.314667 5.610667 38.933333-23.744 81.024-14.976 27.733333-64.917333 58.282667-89.173333 116.48-11.818667 23.338667-31.786667 63.488-13.226667 92.032 63.68 82.752 165.184 95.082667 188.224 96.917333C937.066667 839.957333 1024 686.058667 1024 512 1024 229.205333 794.794667 0 512 0z" fill="#EEEEEE" p-id="11591"></path></svg>