<?xml version="1.0" standalone="no"?><!DOCTYPE svg PUBLIC "-//W3C//DTD SVG 1.1//EN" "http://www.w3.org/Graphics/SVG/1.1/DTD/svg11.dtd"><svg t="1749865609115" class="icon" viewBox="0 0 1024 1024" version="1.1" xmlns="http://www.w3.org/2000/svg" p-id="6354" xmlns:xlink="http://www.w3.org/1999/xlink" width="200" height="200"><path d="M595.105 630.945H430.791c-171.235 10.382-323.698 143.36-323.698 304.735v6.353h809.814v-4.362c0-161.043-150.993-295.917-321.802-306.726z" fill="#FFCEAA" p-id="6355"></path><path d="M430.696 550.163h164.362v234.809H430.696z" fill="#FFCEAA" p-id="6356"></path><path d="M430.127 542.673l0.712 59.401c20.574 26.453 67.792 44.895 122.927 44.895a234.287 234.287 0 0 0 41.387-5.547l-0.237-107.994H439.56a75.852 75.852 0 0 0-9.434 9.245z m-82.726-164.077c-15.028 1.517-29.866 10.619-27.401 41.67 0 0-2.18 43.853 36.693 55.61a260.74 260.74 0 0 1-10.382-72.913c0-8.344 0.38-16.403 1.09-24.367z m330.525 0.663c0.9 9.055 1.422 18.252 1.422 27.591a266.951 266.951 0 0 1-9.007 69.263c37.404-12.374 35.318-55.183 35.318-55.183 2.513-31.478-12.61-40.486-27.733-41.67z" fill="#FFB888" p-id="6357"></path><path d="M678.305 379.686c-10.809-111.313-87.561-159.858-167.11-159.858-80.31 0-154.36 47.408-164.03 159.858-0.664 7.964-1.044 16.024-1.044 24.225a269.796 269.796 0 0 0 9.956 73.055c24.462 86.993 90.359 147.532 158.53 147.532 69.073 0 133.642-59.97 156.445-147.959a277.95 277.95 0 0 0 8.675-69.262 310.613 310.613 0 0 0-1.422-27.591z" fill="#FFCEAA" p-id="6358"></path><path d="M407.135 367.55a45.938 45.938 0 0 1 17.209-12.895 53.95 53.95 0 0 1 21.523-4.74 48.356 48.356 0 0 1 21.617 4.74 46.08 46.08 0 0 1 17.115 13.037c-3.556-0.948-6.59-2.465-9.909-3.413a90.927 90.927 0 0 0-9.481-2.655 77.132 77.132 0 0 0-18.963-2.086 92.634 92.634 0 0 0-19.247 2.228 169.15 169.15 0 0 0-19.864 5.784z m134.02 0a46.08 46.08 0 0 1 17.257-12.895 53.523 53.523 0 0 1 21.475-4.74 48.356 48.356 0 0 1 21.618 4.74 46.222 46.222 0 0 1 17.162 13.037c-3.556-0.948-6.637-2.465-9.908-3.413a97.66 97.66 0 0 0-9.482-2.655 77.274 77.274 0 0 0-18.963-2.086 92.16 92.16 0 0 0-18.963 2.228 169.813 169.813 0 0 0-20.195 5.784z" fill="#54393A" p-id="6359"></path><path d="M512 487.253a23.23 23.23 0 0 1-12.184-2.939 16.26 16.26 0 0 1-5.12-20.812c8.723-18.299 7.111-36.55 5.405-55.893v-2.75l4.74-0.379v2.75c1.755 19.958 3.414 38.826-5.878 58.31a11.71 11.71 0 0 0 3.318 14.744c6.638 4.03 18.679 1.85 27.023-1.232l1.659 4.456A58.88 58.88 0 0 1 512 487.253z" fill="#E6A996" p-id="6360"></path><path d="M436.717 419.982a24.652 9.15 90 1 0 18.3 0 24.652 9.15 90 1 0-18.3 0z" fill="#54393A" p-id="6361"></path><path d="M441.268 405.239a2.276 1.896 0 1 0 4.551 0 2.276 1.896 0 1 0-4.55 0z" fill="#FFFFFF" p-id="6362"></path><path d="M570.738 419.982a24.652 9.15 90 1 0 18.299 0 24.652 9.15 90 1 0-18.3 0z" fill="#54393A" p-id="6363"></path><path d="M575.289 405.239a2.276 1.896 0 1 0 4.551 0 2.276 1.896 0 1 0-4.551 0z" fill="#FFFFFF" p-id="6364"></path><path d="M505.268 550.78a50.347 50.347 0 0 1-22.66-4.741l2.275-4.172c0.948 0.521 24.367 12.705 55.893-6.637l2.513 4.03a72.249 72.249 0 0 1-38.02 11.52z" fill="#E6A996" p-id="6365"></path><path d="M347.117 427.473l-6.163-47.787s-30.673-29.535-28.918-103.253c0 0-15.36-78.507 48.971-113.304 0 0 12.706-52.575 70.637-41.529 0 0 11.757-34.513 42.667-20.338a14.649 14.649 0 0 1 17.304-3.034l16.07 8.107s24.131-34.987 39.823-21.239a20.86 20.86 0 0 1 28.445 6.4 83.105 83.105 0 0 1 70.068 37.405s84.053 51.247 67.081 185.884c0 0-8.39 55.514-26.31 65.707l-7.728 45.416-2.228-58.69s-13.132-20.575-14.223-24.13c0 0-41.292 6.494-69.641-63.147 0 0 2.512 38.352 33.185 54.755l-27.876-6.495 4.741 2.039a29.914 29.914 0 0 1-16.83-5.452s8.25 7.253 12.848 7.538a39.396 39.396 0 0 1-15.36-3.082s3.129 4.741 7.111 5.452a49.54 49.54 0 0 1-31.431-5.641 70.59 70.59 0 0 1-29.677-36.41s-7.064 20.813 31.004 39.823c0 0-30.103-9.481-39.822-30.104 0 0 3.508 30.389 41.576 35.414 0 0-13.653 8.865-49.303-12.09 0 0 9.197 17.115 34.275 17.684 0 0-43.377 2.797-66.37-5.168 0 0-35.887-18.963-46.033-40.248 0 0 16.783 34.939 42.904 42.666 0 0-36.267 3.556-64.616-42.05 0 0 6.21 34.086 33.185 39.822 0 0-22.993 7.538-58.406-11.046 0 0-21.238 22.566-35.413 23.467z" fill="#39334C" p-id="6366"></path><path d="M595.105 630.945s0.38 5.642 0.38 8.913a104.296 104.296 0 0 1-32.522 75.852 85.997 85.997 0 0 1-25.6 16.166l-18.442 31.478-25.884-29.772a82.394 82.394 0 0 1-45.89-35.176 96.095 96.095 0 0 1-9.482-18.205 107.71 107.71 0 0 1-5.452-18.962c-0.521-2.655-4.456-30.246-1.564-30.436-171.236 10.382-323.603 143.36-323.603 304.735v6.352h809.86v-4.361c0-160.9-150.992-295.775-321.8-306.584z" fill="#1F1E2C" p-id="6367"></path><path d="M595.105 630.945s5.547 77.274-61.298 102.448l67.603 30.293s38.306-100.646 38.306-127.052a254.673 254.673 0 0 0-44.61-5.689z m-164.409 0.048s-5.499 77.226 61.298 102.4l-67.603 30.293s-38.352-100.74-38.352-127.147a265.481 265.481 0 0 1 44.657-5.546zM525.084 791.799a5.262 5.262 0 1 0 10.525 0 5.262 5.262 0 1 0-10.525 0zM519.822 853.57a5.262 5.262 0 1 0 10.525 0 5.262 5.262 0 1 0-10.525 0z" fill="#CECECE" p-id="6368"></path><path d="M521.719 769.09s-9.055-32.758-32.475-36.124l-34.133 17.588s43.188 35.65 51.153 69.973" fill="#181823" p-id="6369"></path><path d="M508.255 886.519h-4.74l0.236-65.85a226.655 226.655 0 0 1 31.526-86.945l3.935 2.56c0 0.427-25.505 39.301-30.72 84.67z" fill="#181823" p-id="6370"></path></svg>