<svg t="1749721422178" class="icon" viewBox="0 0 1024 1024" version="1.1" xmlns="http://www.w3.org/2000/svg" p-id="1831" data-spm-anchor-id="a313x.search_index.0.i5.20373a813HzAcD" width="200" height="200"><path d="M309.4528 363.2128h421.888a262.7584 262.7584 0 1 1 0 525.5168h-421.888a262.7584 262.7584 0 0 1 0-525.5168z" fill="#48b750" p-id="1832" data-spm-anchor-id="a313x.search_index.0.i1.20373a813HzAcD" class=""></path><path d="M602.0096 450.5088m-324.2496 0a324.2496 324.2496 0 1 0 648.4992 0 324.2496 324.2496 0 1 0-648.4992 0Z" fill="#1afa29" p-id="1833" data-spm-anchor-id="a313x.search_index.0.i4.20373a813HzAcD" class="selected"></path><path d="M716.8 307.2a290.816 290.816 0 1 1 0 581.5296A290.816 290.816 0 0 1 716.8 307.2z" fill="#48b750" p-id="1834" data-spm-anchor-id="a313x.search_index.0.i2.20373a813HzAcD" class="selected"></path><path d="M753.0496 458.7008a29.696 29.696 0 0 1 39.2704-1.536l2.7136 2.56 84.8896 89.2416a29.696 29.696 0 0 1-18.2272 50.0224l-3.3792 0.2048h-236.4928a29.696 29.696 0 0 1-3.4304-59.2896l3.4304-0.2048h167.2192l-37.0688-38.912a29.696 29.696 0 0 1-1.536-39.3216l2.56-2.7648z m-25.8048 325.5808a29.696 29.696 0 0 1-39.3216 1.4848l-2.7136-2.56-84.8384-89.2416a29.7472 29.7472 0 0 1 18.2272-50.0224l3.328-0.1536h236.4928a29.696 29.696 0 0 1 3.4816 59.2384l-3.4816 0.2048H691.2l37.0688 38.912a29.696 29.696 0 0 1 1.536 39.3728l-2.56 2.7648z" fill="#FFFFFF" p-id="1835"></path></svg>